<?xml version="1.0" encoding="utf-8"?>
<!-- Generator: Adobe Illustrator 17.0.0, SVG Export Plug-In . SVG Version: 6.00 Build 0)  -->
<!DOCTYPE svg PUBLIC "-//W3C//DTD SVG 1.1//EN" "http://www.w3.org/Graphics/SVG/1.1/DTD/svg11.dtd">
<svg version="1.1" id="Layer_1" xmlns="http://www.w3.org/2000/svg" xmlns:xlink="http://www.w3.org/1999/xlink" x="0px" y="0px"
	 width="418.333px" height="41.667px" viewBox="0 0 418.333 41.667" enable-background="new 0 0 418.333 41.667"
	 xml:space="preserve">
<g>
	<g>
		<defs>
			<rect id="SVGID_1_" x="0.994" y="1.928" width="10.225" height="38.855"/>
		</defs>
		<clipPath id="SVGID_2_">
			<use xlink:href="#SVGID_1_"  overflow="visible"/>
		</clipPath>
		<rect x="-9.231" y="-8.297" clip-path="url(#SVGID_2_)" fill="#FFFFFF" width="30.675" height="59.305"/>
	</g>
	<g>
		<defs>
			<polygon id="SVGID_3_" points="56.955,1.928 56.955,30.156 56.852,30.156 35.209,1.928 17.354,1.928 17.354,40.783 
				28.877,40.783 28.877,12.556 28.98,12.556 50.623,40.783 68.479,40.783 68.479,1.928 			"/>
		</defs>
		<clipPath id="SVGID_4_">
			<use xlink:href="#SVGID_3_"  overflow="visible"/>
		</clipPath>
		<rect x="7.129" y="-8.297" clip-path="url(#SVGID_4_)" fill="#FFFFFF" width="71.574" height="59.305"/>
	</g>
	<g>
		<defs>
			<path id="SVGID_5_" d="M87.396,10.562h19.146c1.167,0,2.155,0.108,2.966,0.325c0.809,0.217,1.466,0.59,1.968,1.114
				c0.502,0.524,0.875,1.238,1.118,2.143c0.244,0.904,0.365,2.062,0.365,3.472v7.478c0,1.41-0.121,2.568-0.365,3.475
				c-0.243,0.904-0.616,1.618-1.118,2.142c-0.502,0.525-1.159,0.896-1.968,1.114c-0.811,0.216-1.798,0.324-2.966,0.324H87.396
				V10.562z M74.614,1.928v38.855h35.313c2.916,0,5.383-0.249,7.405-0.752c2.02-0.5,3.655-1.295,4.902-2.388
				c1.246-1.09,2.141-2.494,2.687-4.211c0.545-1.719,0.818-3.775,0.818-6.172V15.453c0-2.397-0.273-4.455-0.818-6.173
				c-0.546-1.717-1.44-3.119-2.687-4.212c-1.248-1.091-2.882-1.888-4.902-2.387c-2.021-0.503-4.489-0.752-7.405-0.752H74.614z"/>
		</defs>
		<clipPath id="SVGID_6_">
			<use xlink:href="#SVGID_5_"  overflow="visible"/>
		</clipPath>
		<rect x="64.389" y="-8.297" clip-path="url(#SVGID_6_)" fill="#FFFFFF" width="71.574" height="59.305"/>
	</g>
	<g>
		<defs>
			<polygon id="SVGID_7_" points="216.633,1.928 205.493,15.506 194.353,1.928 180.147,1.928 196.483,21.303 178.908,40.783 
				193.663,40.783 205.493,26.67 217.326,40.783 232.078,40.783 214.503,21.303 230.84,1.928 			"/>
		</defs>
		<clipPath id="SVGID_8_">
			<use xlink:href="#SVGID_7_"  overflow="visible"/>
		</clipPath>
		<rect x="168.684" y="-8.297" clip-path="url(#SVGID_8_)" fill="#FFFFFF" width="73.619" height="59.305"/>
	</g>
	<g>
		<defs>
			<path id="SVGID_9_" d="M141.74,13.711c0.211-0.84,0.666-1.499,1.358-1.979c0.691-0.48,1.696-0.793,3.009-0.944
				c1.313-0.149,5.402-0.225,7.644-0.225c2.006,0,6.514,0.077,7.803,0.225c1.291,0.151,2.316,0.465,3.08,0.944
				c0.764,0.481,1.289,1.14,1.576,1.979c0.286,0.841,0.429,1.949,0.429,3.327h-25.222C141.416,15.661,141.524,14.552,141.74,13.711
				 M145.692,1.928c-2.378,0-4.527,0.235-6.454,0.7c-1.928,0.469-3.597,1.344-5.007,2.624c-1.413,1.281-2.5,3.053-3.26,5.318
				c-0.763,2.266-1.143,5.171-1.143,8.716v3.621c0,4.038,0.513,7.238,1.545,9.601c1.03,2.365,2.374,4.163,4.033,5.394
				c1.657,1.231,3.529,2.019,5.614,2.362c2.082,0.345,4.201,0.518,6.349,0.518h12.488c2.329,0,4.525-0.159,6.587-0.48
				c2.061-0.318,3.865-0.897,5.41-1.737c1.544-0.834,2.767-2.004,3.663-3.508c0.896-1.501,1.346-3.434,1.346-5.799v-1.624h-11.398
				c0,0.543-0.058,1.07-0.17,1.587c-0.113,0.517-0.402,0.973-0.872,1.368c-0.469,0.395-1.199,0.714-2.185,0.96
				c-0.986,0.247-2.351,0.369-4.1,0.369h-8.857c-3.59,0-7.524,0-7.931-5.097v-2.29h35.512v-6.353c0-3.249-0.371-5.933-1.111-8.052
				c-0.739-2.117-1.884-3.778-3.427-4.985c-1.545-1.207-3.555-2.044-6.016-2.514c-2.465-0.466-5.401-0.7-8.804-0.7H145.692z"/>
		</defs>
		<clipPath id="SVGID_10_">
			<use xlink:href="#SVGID_9_"  overflow="visible"/>
		</clipPath>
		<rect x="119.603" y="-8.297" clip-path="url(#SVGID_10_)" fill="#FFFFFF" width="67.485" height="59.305"/>
	</g>
	<g>
		<path fill="#FFFFFF" d="M253.178,2.059c12.548,0,17.791,5.744,17.791,19.409c0,13.662-5.243,19.405-17.791,19.405
			c-12.493,0-17.847-5.744-17.847-19.405C235.332,7.803,240.686,2.059,253.178,2.059z M253.178,37.136
			c9.202,0,13.105-4.516,13.105-15.669c0-11.157-3.903-15.672-13.105-15.672c-9.372,0-13.108,4.516-13.108,15.672
			C240.07,32.621,243.806,37.136,253.178,37.136z"/>
		<path fill="#FFFFFF" d="M307.209,20.629V39.37c-4.126,1.002-8.478,1.503-13.049,1.503c-12.771,0-18.292-5.744-18.292-19.405
			c0-13.665,5.577-19.409,18.737-19.409c4.015,0,7.807,0.445,11.376,1.392v3.74c-3.625-0.95-7.25-1.451-10.764-1.451
			c-10.426,0-14.778,4.571-14.778,15.728c0,11.153,4.126,15.725,14.166,15.725c2.957,0,5.688-0.278,8.311-0.891V23.92h-9.595v-3.291
			H307.209z"/>
		<path fill="#FFFFFF" d="M319.417,2.727v33.797h18.125v3.681H314.79V2.727H319.417z"/>
		<path fill="#FFFFFF" d="M359.734,2.727l14.333,37.478h-4.742l-3.681-9.984h-17.123l-3.681,9.984h-4.683l14.333-37.478H359.734z
			 M364.472,26.763l-7.361-19.798l-7.417,19.798H364.472z"/>
		<path fill="#FFFFFF" d="M392.293,2.059c3.851,0,7.587,0.557,11.212,1.618v3.736c-3.569-1.117-7.194-1.673-10.875-1.673
			c-6.749,0-9.483,1.896-9.483,6.634c0,10.263,22.31,3.18,22.31,17.847c0,7.532-4.07,10.652-14.055,10.652
			c-4.408,0-8.589-0.557-12.604-1.84V35.24c4.07,1.339,8.085,1.952,12.27,1.952c6.916,0,9.703-1.896,9.703-6.86
			c0-10.652-22.362-3.625-22.362-17.847C378.409,5.18,382.535,2.059,392.293,2.059z"/>
		<path fill="#FFFFFF" d="M416.994,2.727v37.478h-4.627V2.727H416.994z"/>
	</g>
</g>
</svg>
